# xmcd
#
# Track frame offsets:
#	150
#	15695
#	27020
#	41388
#	55437
#	68503
#	84420
#	95695
#	109920
#	122102
#	138080
#	156704
#	172779
#	182754
#	196718
#	210944
#	220837
#	232370
#
# Disc length: 3294 seconds
#
# Revision: 0
# Processed by: cddbd v1.5.2PL0 Copyright (c) Steve Scherf et al.
# Submitted via: audiograbber 1.83.01
#
DISCID=f20cdc12
DTITLE=Art Tatum - Begin The Beguine
DYEAR=2000
DGENRE=Jazz
TTITLE0=Indiana
TTITLE1=Battery Bounce
TTITLE2=Lover
TTITLE3=Tea Fo Two
TTITLE4=Begin The Beguine
TTITLE5=Poor Butterfly
TTITLE6=Cocktails For Two
TTITLE7=Someone To Watch Over Me
TTITLE8=Art´s Blues
TTITLE9=Would You Like To Take A Walk
TTITLE10=Jitterbug Waltz
TTITLE11=Willow Weep For Me
TTITLE12=Make Belive
TTITLE13=To Marvellous For Words
TTITLE14=Yesterdays
TTITLE15=I´ll Never Be The Same
TTITLE16=I´ve Got A Right To Sing The Blues
TTITLE17=Chloe
EXTD=Jazz Master Collection
EXTT0=
EXTT1=
EXTT2=
EXTT3=
EXTT4=
EXTT5=
EXTT6=
EXTT7=
EXTT8=
EXTT9=
EXTT10=
EXTT11=
EXTT12=
EXTT13=
EXTT14=
EXTT15=
EXTT16=
EXTT17=
PLAYORDER=
